<?xml version="1.0" standalone="yes"?>
<svg xmlns="http://www.w3.org/2000/svg" width="461" height="187">
<path style="fill:#fffbf2; stroke:none;" d="M0 0L0 187L461 187L461 0L0 0z"/>
<path style="fill:#dfd6cc; stroke:none;" d="M234 9C235.769 9.77893 237.036 9.91241 239 10C237.231 9.22107 235.964 9.0876 234 9z"/>
<path style="fill:#b4a89a; stroke:none;" d="M231 10L232 11L231 10z"/>
<path style="fill:#7b6656; stroke:none;" d="M232 10L232 13C232.696 11.4463 232.696 11.5537 232 10z"/>
<path style="fill:#442815; stroke:none;" d="M233 13C237.821 11.3979 239.754 12.7528 244 15C243.938 13.2629 243.98 13.36 245 12C241.402 10.3067 234.136 7.69856 233 13z"/>
<path style="fill:#a8998b; stroke:none;" d="M241 10L242 11L241 10z"/>
<path style="fill:#6b5545; stroke:none;" d="M229 11L230 12L229 11z"/>
<path style="fill:#361904; stroke:none;" d="M230.667 11.3333C230.222 11.7778 231.278 11.7222 231.333 11.6667C231.778 11.2222 230.722 11.2778 230.667 11.3333z"/>
<path style="fill:#c2b7aa; stroke:none;" d="M236 11L237 12L236 11z"/>
<path style="fill:#614a36; stroke:none;" d="M237 11L238 13C239.635 12.455 239.455 12.6351 240 11L237 11z"/>
<path style="fill:#dcd3c9; stroke:none;" d="M244 11L245 12L244 11z"/>
<path style="fill:#a39485; stroke:none;" d="M227 12L228 13L227 12z"/>
<path style="fill:#422511; stroke:none;" d="M228.667 12.3333C228.222 12.7778 229.278 12.7222 229.333 12.6667C229.778 12.2223 228.722 12.2777 228.667 12.3333z"/>
<path style="fill:#aa9b8e; stroke:none;" d="M230 12L231 13L230 12z"/>
<path style="fill:#ffffff; stroke:none;" d="M231 12L232 13L231 12z"/>
<path style="fill:#a99a8e; stroke:none;" d="M234 12L235 13L234 12z"/>
<path style="fill:#fffbf2; stroke:none;" d="M232 49C233.977 44.8853 233.752 40.4566 234.285 36C235.243 28.0013 235.991 19.9877 237 12C223.132 18.8219 231.508 37.5599 232 49z"/>
<path style="fill:#311300; stroke:none;" d="M237 12L237 20C238.161 17.2301 238.161 14.7699 237 12z"/>
<path style="fill:#fffbf2; stroke:none;" d="M239 12C238.079 23.6698 236.001 35.2706 236 47C242.59 38.2921 248.598 20.3826 239 12z"/>
<path style="fill:#8d7c6b; stroke:none;" d="M240 12L241 13L240 12z"/>
<path style="fill:#887566; stroke:none;" d="M245 12L246 13L245 12z"/>
<path style="fill:#432712; stroke:none;" d="M224 17C225.752 15.6698 226.67 14.7525 228 13C225.751 14.1536 225.154 14.7511 224 17z"/>
<path style="fill:#968676; stroke:none;" d="M228 13L229 14L228 13z"/>
<path style="fill:#fffbf2; stroke:none;" d="M229 46C230.56 40.8624 227.398 34.3773 227.093 29C226.764 23.1815 229.213 18.3623 231 13C215.394 19.1785 224.857 35.3223 229 46z"/>
<path style="fill:#988878; stroke:none;" d="M231 13L232 14L231 13z"/>
<path style="fill:#361905; stroke:none;" d="M232 13L233 14L232 13z"/>
<path style="fill:#b4a799; stroke:none;" d="M233 13L234 14L233 13z"/>
<path style="fill:#a59689; stroke:none;" d="M238.333 13.6667C238.278 13.7222 238.222 14.7778 238.667 14.3333C238.722 14.2777 238.778 13.2223 238.333 13.6667z"/>
<path style="fill:#8e7c6c; stroke:none;" d="M241 13L242 14L241 13z"/>
<path style="fill:#e3dbd1; stroke:none;" d="M243 13L244 14L243 13z"/>
<path style="fill:#9f9081; stroke:none;" d="M244 13L245 14L244 13z"/>
<path style="fill:#432712; stroke:none;" d="M245 13C246.33 14.7525 247.247 15.6697 249 17C247.846 14.7511 247.249 14.1535 245 13z"/>
<path style="fill:#ded5cb; stroke:none;" d="M227 14L228 15L227 14z"/>
<path style="fill:#422611; stroke:none;" d="M231 14C229.957 16.0955 229.397 17.6987 229 20C230.631 17.957 231.444 16.583 231 14z"/>
<path style="fill:#897867; stroke:none;" d="M232 14L233 15L232 14z"/>
<path style="fill:#e0d7cd; stroke:none;" d="M244 14L244 16C245.635 15.455 245.455 15.6351 246 14L244 14M236.333 15.6667C236.278 15.7222 236.222 16.7778 236.667 16.3333C236.722 16.2778 236.778 15.2223 236.333 15.6667z"/>
<path style="fill:#ddd4ca; stroke:none;" d="M238.333 15.6667C238.278 15.7222 238.222 16.7778 238.667 16.3333C238.722 16.2778 238.778 15.2222 238.333 15.6667z"/>
<path style="fill:#a6978a; stroke:none;" d="M242 15L243 16L242 15z"/>
<path style="fill:#351702; stroke:none;" d="M243.333 15.6667C243.278 15.7222 243.222 16.7778 243.667 16.3333C243.722 16.2778 243.778 15.2223 243.333 15.6667z"/>
<path style="fill:#fffbf2; stroke:none;" d="M245 15C245.343 19.3433 246.397 23.632 245.674 28C244.574 34.6518 240.837 40.5734 239 47C248.813 38.0318 254.005 27.0603 247 15L245 15z"/>
<path style="fill:#5e4535; stroke:none;" d="M223 16L224 17L223 16z"/>
<path style="fill:#cfc4b9; stroke:none;" d="M229 16L230 17L229 16z"/>
<path style="fill:#c2b7aa; stroke:none;" d="M231 16L232 17L231 16z"/>
<path style="fill:#897766; stroke:none;" d="M244 16L245 17L244 16z"/>
<path style="fill:#7f6c5c; stroke:none;" d="M249 16L250 17L249 16z"/>
<path style="fill:#a49588; stroke:none;" d="M222 17L223 18L222 17z"/>
<path style="fill:#371a05; stroke:none;" d="M223 17L224 18L223 17z"/>
<path style="fill:#c2b7aa; stroke:none;" d="M224 17L225 18L224 17z"/>
<path style="fill:#a8998c; stroke:none;" d="M236.333 17.6667C236.278 17.7222 236.222 18.7778 236.667 18.3333C236.722 18.2777 236.778 17.2223 236.333 17.6667z"/>
<path style="fill:#7d6856; stroke:none;" d="M243 17L244 18L243 17z"/>
<path style="fill:#311400; stroke:none;" d="M244 17L244 22C244.83 19.9695 244.83 19.0305 244 17z"/>
<path style="fill:#b2a698; stroke:none;" d="M248 17L249 18L248 17z"/>
<path style="fill:#341702; stroke:none;" d="M249 17L250 18L249 17z"/>
<path style="fill:#361904; stroke:none;" d="M222.333 18.6667C222.278 18.7222 222.222 19.7778 222.667 19.3333C222.722 19.2777 222.778 18.2223 222.333 18.6667z"/>
<path style="fill:#6e5747; stroke:none;" d="M223 18L224 19L223 18z"/>
<path style="fill:#a59689; stroke:none;" d="M230 18L231 19L230 18z"/>
<path style="fill:#b5a89a; stroke:none;" d="M243 18L244 19L243 18z"/>
<path style="fill:#6d5545; stroke:none;" d="M249 18L250 19L249 18z"/>
<path style="fill:#351703; stroke:none;" d="M250.333 18.6667C250.278 18.7222 250.222 19.7778 250.667 19.3333C250.722 19.2777 250.778 18.2223 250.333 18.6667z"/>
<path style="fill:#a59689; stroke:none;" d="M221 19L222 20L221 19z"/>
<path style="fill:#b4a799; stroke:none;" d="M228 19L229 20L228 19z"/>
<path style="fill:#6d5545; stroke:none;" d="M236 19L237 23C237.553 20.9922 237.303 20.6676 236 19z"/>
<path style="fill:#d0c7bb; stroke:none;" d="M245 19L246 20L245 19z"/>
<path style="fill:#ddd5ca; stroke:none;" d="M249 19L250 20L249 19z"/>
<path style="fill:#a59688; stroke:none;" d="M251 19L252 20L251 19z"/>
<path style="fill:#331500; stroke:none;" d="M221 20L221 24C221.71 22.2405 221.71 21.7595 221 20z"/>
<path style="fill:#6e5746; stroke:none;" d="M222 20L223 21L222 20z"/>
<path style="fill:#5e4534; stroke:none;" d="M228.667 20.3333C228.222 20.7778 229.278 20.7222 229.333 20.6667C229.778 20.2222 228.722 20.2777 228.667 20.3333z"/>
<path style="fill:#a7988c; stroke:none;" d="M245.333 20.6667C245.278 20.7222 245.222 21.7778 245.667 21.3333C245.722 21.2777 245.778 20.2222 245.333 20.6667z"/>
<path style="fill:#4f3522; stroke:none;" d="M250.667 20.3333C250.222 20.7778 251.278 20.7222 251.333 20.6667C251.778 20.2222 250.722 20.2777 250.667 20.3333z"/>
<path style="fill:#c3b8ab; stroke:none;" d="M222 21L223 22L222 21z"/>
<path style="fill:#311300; stroke:none;" d="M228 21L228 26C228.83 23.9695 228.83 23.0305 228 21z"/>
<path style="fill:#988778; stroke:none;" d="M229 21L230 22L229 21z"/>
<path style="fill:#c2b7aa; stroke:none;" d="M250 21L251 22L250 21z"/>
<path style="fill:#321400; stroke:none;" d="M251 21L251 24C251.696 22.4463 251.696 22.5537 251 21z"/>
<path style="fill:#b4a89a; stroke:none;" d="M220 22L221 23L220 22z"/>
<path style="fill:#ddd4ca; stroke:none;" d="M227 22L228 23L227 22z"/>
<path style="fill:#d0c6bb; stroke:none;" d="M229 22L230 23L229 22z"/>
<path style="fill:#321400; stroke:none;" d="M236 22L236 30C237.161 27.2302 237.161 24.7699 236 22z"/>
<path style="fill:#6c5544; stroke:none;" d="M244 22L245 26C245.683 24.4939 245.826 23.6852 246 22L244 22z"/>
<path style="fill:#b4a799; stroke:none;" d="M252 22L253 23L252 22z"/>
<path style="fill:#6d5746; stroke:none;" d="M220 23L220 29C221.766 26.5798 221.766 25.4202 220 23z"/>
<path style="fill:#a7988b; stroke:none;" d="M227.333 23.6667C227.278 23.7222 227.222 24.7778 227.667 24.3333C227.722 24.2778 227.778 23.2223 227.333 23.6667z"/>
<path style="fill:#a59689; stroke:none;" d="M237.333 23.6667C237.278 23.7222 237.222 24.7778 237.667 24.3333C237.722 24.2777 237.778 23.2222 237.333 23.6667z"/>
<path style="fill:#6c5544; stroke:none;" d="M252 23C251.354 25.4578 251.354 26.5422 252 29C252.951 26.7147 252.951 25.2853 252 23M227 25L227 31C228.766 28.5798 228.766 27.4202 227 25z"/>
<path style="fill:#d1c7bc; stroke:none;" d="M235.333 25.6667C235.278 25.7222 235.222 26.7778 235.667 26.3333C235.722 26.2778 235.778 25.2222 235.333 25.6667z"/>
<path style="fill:#ddd4ca; stroke:none;" d="M237.333 25.6667C237.278 25.7222 237.222 26.7778 237.667 26.3333C237.722 26.2778 237.778 25.2222 237.333 25.6667z"/>
<path style="fill:#311300; stroke:none;" d="M244 25L244 31C244.951 28.7147 244.951 27.2852 244 25z"/>
<path style="fill:#40240f; stroke:none;" d="M220 26L221 27L220 26z"/>
<path style="fill:#a59689; stroke:none;" d="M245.333 26.6667C245.278 26.7222 245.222 27.7778 245.667 27.3333C245.722 27.2777 245.778 26.2223 245.333 26.6667z"/>
<path style="fill:#a8998d; stroke:none;" d="M235.333 27.6667C235.278 27.7222 235.222 28.7778 235.667 28.3333C235.722 28.2778 235.778 27.2223 235.333 27.6667z"/>
<path style="fill:#321400; stroke:none;" d="M221 28L221 32C221.71 30.2405 221.71 29.7595 221 28z"/>
<path style="fill:#c3b8ab; stroke:none;" d="M243.333 28.6667C243.278 28.7222 243.222 29.7778 243.667 29.3333C243.722 29.2778 243.778 28.2223 243.333 28.6667z"/>
<path style="fill:#ebe5d9; stroke:none;" d="M245.333 28.6667C245.278 28.7222 245.222 29.7778 245.667 29.3333C245.722 29.2777 245.778 28.2222 245.333 28.6667z"/>
<path style="fill:#321400; stroke:none;" d="M251 28L251 32C251.71 30.2405 251.71 29.7595 251 28z"/>
<path style="fill:#a59689; stroke:none;" d="M220 29L221 30L220 29z"/>
<path style="fill:#6d5645; stroke:none;" d="M235 29C235.406 31.0924 235.217 31.0197 237 32C236.316 30.42 236.195 30.2228 235 29z"/>
<path style="fill:#a5968a; stroke:none;" d="M252 29L253 30L252 29z"/>
<path style="fill:#c1b6a9; stroke:none;" d="M222 30L223 31L222 30z"/>
<path style="fill:#321400; stroke:none;" d="M228 30L228 35C228.83 32.9695 228.83 32.0305 228 30z"/>
<path style="fill:#988778; stroke:none;" d="M243 30L244 31L243 30z"/>
<path style="fill:#c2b7aa; stroke:none;" d="M250 30L251 31L250 30z"/>
<path style="fill:#7c6755; stroke:none;" d="M222 31L223 32L222 31z"/>
<path style="fill:#b4a799; stroke:none;" d="M227.333 31.6667C227.278 31.7222 227.222 32.7778 227.667 32.3333C227.722 32.2778 227.778 31.2222 227.333 31.6667z"/>
<path style="fill:#331501; stroke:none;" d="M243 31L243 34C243.696 32.4463 243.696 32.5537 243 31z"/>
<path style="fill:#7b6755; stroke:none;" d="M244 31L245 32L244 31z"/>
<path style="fill:#6d5747; stroke:none;" d="M250 31L251 32L250 31z"/>
<path style="fill:#968576; stroke:none;" d="M221 32L222 33L221 32z"/>
<path style="fill:#341602; stroke:none;" d="M222.333 32.6667C222.278 32.7222 222.222 33.7778 222.667 33.3333C222.722 33.2777 222.778 32.2223 222.333 32.6667z"/>
<path style="fill:#321400; stroke:none;" d="M235 32L235 40C236.161 37.2302 236.161 34.7698 235 32z"/>
<path style="fill:#a7988c; stroke:none;" d="M236 32L236 35C236.696 33.4463 236.696 33.5537 236 32z"/>
<path style="fill:#b3a698; stroke:none;" d="M244 32L245 33L244 32z"/>
<path style="fill:#331501; stroke:none;" d="M250.333 32.6667C250.278 32.7222 250.222 33.7778 250.667 33.3333C250.722 33.2777 250.778 32.2223 250.333 32.6667z"/>
<path style="fill:#a59689; stroke:none;" d="M251 32L252 33L251 32z"/>
<path style="fill:#978677; stroke:none;" d="M223 33L224 34L223 33z"/>
<path style="fill:#d0c7bb; stroke:none;" d="M229 33L230 34L229 33z"/>
<path style="fill:#978777; stroke:none;" d="M242 33L243 34L242 33z"/>
<path style="fill:#7c6757; stroke:none;" d="M249 33L250 34L249 33z"/>
<path style="fill:#7b6755; stroke:none;" d="M222 34L223 35L222 34z"/>
<path style="fill:#351702; stroke:none;" d="M223.333 34.6667C223.278 34.7222 223.222 35.7778 223.667 35.3333C223.722 35.2777 223.778 34.2223 223.333 34.6667z"/>
<path style="fill:#a6978a; stroke:none;" d="M229 34L230 35L229 34z"/>
<path style="fill:#ded5cb; stroke:none;" d="M234 34L234 37C234.696 35.4463 234.696 35.5537 234 34z"/>
<path style="fill:#5e4534; stroke:none;" d="M242.667 34.3333C242.222 34.7778 243.278 34.7222 243.333 34.6667C243.778 34.2222 242.722 34.2778 242.667 34.3333z"/>
<path style="fill:#cfc5b9; stroke:none;" d="M248 34L249 35L248 34z"/>
<path style="fill:#361904; stroke:none;" d="M249 34L250 35L249 34z"/>
<path style="fill:#a49487; stroke:none;" d="M250 34L251 35L250 34z"/>
<path style="fill:#b3a798; stroke:none;" d="M224 35L225 36L224 35z"/>
<path style="fill:#6d5545; stroke:none;" d="M228 35L228 37C229.635 36.455 229.455 36.6351 230 35L228 35z"/>
<path style="fill:#dcd3c9; stroke:none;" d="M236.333 35.6667C236.278 35.7222 236.222 36.7778 236.667 36.3333C236.722 36.2778 236.778 35.2223 236.333 35.6667z"/>
<path style="fill:#cfc5ba; stroke:none;" d="M241 35L242 36L241 35z"/>
<path style="fill:#41240f; stroke:none;" d="M242.333 35.6667C242.278 35.7222 242.222 36.7778 242.667 36.3333C242.722 36.2778 242.778 35.2223 242.333 35.6667z"/>
<path style="fill:#c1b6a9; stroke:none;" d="M243 35L244 36L243 35z"/>
<path style="fill:#361803; stroke:none;" d="M248.333 35.6667C248.278 35.7222 248.222 36.7778 248.667 36.3333C248.722 36.2778 248.778 35.2223 248.333 35.6667z"/>
<path style="fill:#5e4534; stroke:none;" d="M249 35L250 36L249 35z"/>
<path style="fill:#503622; stroke:none;" d="M223 36L225 41C225.71 38.4693 225.131 37.4845 223 36z"/>
<path style="fill:#311400; stroke:none;" d="M229 36L229 40C229.71 38.2405 229.71 37.7595 229 36z"/>
<path style="fill:#7b6755; stroke:none;" d="M241 36L242 37L241 36z"/>
<path style="fill:#6d5746; stroke:none;" d="M247 36L248 37L247 36z"/>
<path style="fill:#c1b6a9; stroke:none;" d="M223 37L224 38L223 37z"/>
<path style="fill:#c0b5a8; stroke:none;" d="M225 37L226 38L225 37z"/>
<path style="fill:#b4a89a; stroke:none;" d="M228 37L229 38L228 37z"/>
<path style="fill:#a8998c; stroke:none;" d="M234.333 37.6667C234.278 37.7222 234.222 38.7778 234.667 38.3333C234.722 38.2778 234.778 37.2222 234.333 37.6667z"/>
<path style="fill:#341601; stroke:none;" d="M241.333 37.6667C241.278 37.7222 241.222 38.7778 241.667 38.3333C241.722 38.2777 241.778 37.2222 241.333 37.6667z"/>
<path style="fill:#a59689; stroke:none;" d="M242 37L243 38L242 37z"/>
<path style="fill:#b3a798; stroke:none;" d="M246 37L247 38L246 37z"/>
<path style="fill:#371905; stroke:none;" d="M247 37L248 38L247 37z"/>
<path style="fill:#b3a798; stroke:none;" d="M248 37L249 38L248 37z"/>
<path style="fill:#ee9f9e; stroke:none;" d="M181 38C179.103 44.384 175.136 47.7186 169 50C173.948 54.1635 177.762 56.5969 180 63C184.104 58.1229 186.524 53.9238 193 52C190.565 49.9498 187.635 48.455 185.649 45.8951C183.757 43.456 182.858 40.4552 181 38z"/>
<path style="fill:#ddd4ca; stroke:none;" d="M228 38L229 39L228 38z"/>
<path style="fill:#d0c6ba; stroke:none;" d="M230 38L231 39L230 38z"/>
<path style="fill:#978677; stroke:none;" d="M240 38L241 39L240 38z"/>
<path style="fill:#422612; stroke:none;" d="M246 38C245.014 39.4785 245 39.2032 245 41C246.289 39.5574 246.401 39.7662 246 38z"/>
<path style="fill:#6d5545; stroke:none;" d="M247 38L248 39L247 38z"/>
<path style="fill:#ee9f9e; stroke:none;" d="M280 38C277.862 44.2663 275.183 48.2726 269 51C274.297 54.5847 278.301 56.8684 281 63C284.882 57.8975 286.752 53.7498 293 51C287.481 46.704 283.978 43.8764 280 38z"/>
<path style="fill:#a49588; stroke:none;" d="M224 39L225 40L224 39z"/>
<path style="fill:#dcd3c9; stroke:none;" d="M226 39L227 40L226 39z"/>
<path style="fill:#a6978a; stroke:none;" d="M230 39L231 40L230 39z"/>
<path style="fill:#6d5545; stroke:none;" d="M234 39C234.406 41.0924 234.217 41.0198 236 42C235.316 40.42 235.195 40.2228 234 39z"/>
<path style="fill:#412510; stroke:none;" d="M240 39L239 44C240.318 42.0738 240.651 41.2342 240 39z"/>
<path style="fill:#7b6755; stroke:none;" d="M241 39L242 40L241 39z"/>
<path style="fill:#897767; stroke:none;" d="M226 40L227 41L226 40z"/>
<path style="fill:#6d5545; stroke:none;" d="M229 40L229 42C230.635 41.455 230.455 41.6351 231 40L229 40z"/>
<path style="fill:#c2b7aa; stroke:none;" d="M239 40L240 41L239 40z"/>
<path style="fill:#ded5cb; stroke:none;" d="M241 40L242 41L241 40z"/>
<path style="fill:#968676; stroke:none;" d="M244 40C244.545 41.6352 244.365 41.4549 246 42C245.455 40.3648 245.635 40.5451 244 40z"/>
<path style="fill:#cec4b8; stroke:none;" d="M246 40L247 41L246 40z"/>
<path style="fill:#887665; stroke:none;" d="M225 41L226 42L225 41z"/>
<path style="fill:#351702; stroke:none;" d="M226 41L227 45C227.393 43.076 227.146 42.6405 226 41z"/>
<path style="fill:#311400; stroke:none;" d="M230 41L230 45C230.71 43.2405 230.71 42.7595 230 41z"/>
<path style="fill:#cec4b8; stroke:none;" d="M243 41L244 42L243 41z"/>
<path style="fill:#361904; stroke:none;" d="M244 41L245 42L244 41z"/>
<path style="fill:#ed9a99; stroke:none;" d="M204 42C202.342 43.9215 201.259 44.8955 199 46L203 51C206.389 48.0773 206.55 45.6717 204 42z"/>
<path style="fill:#978677; stroke:none;" d="M227 42L228 43L227 42z"/>
<path style="fill:#b5a89a; stroke:none;" d="M229 42L230 43L229 42z"/>
<path style="fill:#3b200e; stroke:none;" d="M234 42L234 50L232 50L232 46C231.317 47.506 231.174 48.3148 231 50C229.824 47.7657 229.073 46.3882 227 45C227.868 47.3546 228.574 49.5309 229 52C234.577 50.7372 237.546 52.0446 238 58C239.309 54.9086 239.382 51.3281 240 48L235 50C234.993 47.1645 235.098 44.6127 234 42z"/>
<path style="fill:#a7988b; stroke:none;" d="M235 42L235 45C235.696 43.4463 235.696 43.5537 235 42z"/>
<path style="fill:#ddd5ca; stroke:none;" d="M238 42L239 43L238 42z"/>
<path style="fill:#c2b7aa; stroke:none;" d="M240 42L241 43L240 42z"/>
<path style="fill:#361803; stroke:none;" d="M243.333 42.6667C243.278 42.7222 243.222 43.7778 243.667 43.3333C243.722 43.2778 243.778 42.2222 243.333 42.6667z"/>
<path style="fill:#5f4635; stroke:none;" d="M244 42L245 43L244 42z"/>
<path style="fill:#ed9c9b; stroke:none;" d="M257 42C255.847 46.1183 255.648 48.1101 259 51C260.33 49.2476 261.248 48.3302 263 47L257 42z"/>
<path style="fill:#7b6755; stroke:none;" d="M226 43L227 44L226 43z"/>
<path style="fill:#d0c6ba; stroke:none;" d="M231 43L232 44L231 43z"/>
<path style="fill:#897767; stroke:none;" d="M238 43C238.545 44.6352 238.365 44.4549 240 45C239.455 43.3648 239.635 43.5451 238 43z"/>
<path style="fill:#6d5746; stroke:none;" d="M242 43L243 44L242 43z"/>
<path style="fill:#ddd4ca; stroke:none;" d="M226 44L227 45L226 44z"/>
<path style="fill:#a6978a; stroke:none;" d="M228 44L229 45L228 44M231 44L232 45L231 44z"/>
<path style="fill:#ded5cb; stroke:none;" d="M233 44L233 47C233.696 45.4463 233.696 45.5537 233 44z"/>
<path style="fill:#351703; stroke:none;" d="M238.333 44.6667C238.278 44.7222 238.222 45.7778 238.667 45.3333C238.722 45.2778 238.778 44.2222 238.333 44.6667z"/>
<path style="fill:#b4a799; stroke:none;" d="M241 44L242 45L241 44z"/>
<path style="fill:#371905; stroke:none;" d="M242 44L243 45L242 44z"/>
<path style="fill:#b3a798; stroke:none;" d="M243 44L244 45L243 44z"/>
<path style="fill:#6d5545; stroke:none;" d="M230 45L230 47C231.635 46.455 231.455 46.6351 232 45L230 45z"/>
<path style="fill:#dfd7cc; stroke:none;" d="M235.333 45.6667C235.278 45.7222 235.222 46.7778 235.667 46.3333C235.722 46.2778 235.778 45.2223 235.333 45.6667z"/>
<path style="fill:#a59689; stroke:none;" d="M237 45L238 46L237 45z"/>
<path style="fill:#422612; stroke:none;" d="M241 45C240.014 46.4785 240 46.2032 240 48C241.289 46.5574 241.401 46.7663 241 45z"/>
<path style="fill:#6d5545; stroke:none;" d="M242 45L243 46L242 45z"/>
<path style="fill:#f4c1be; stroke:none;" d="M207.333 46.6667C207.278 46.7222 207.222 47.7778 207.667 47.3333C207.722 47.2778 207.778 46.2222 207.333 46.6667z"/>
<path style="fill:#c0b5a8; stroke:none;" d="M227 46L228 47L227 46z"/>
<path style="fill:#cfc5b9; stroke:none;" d="M229 46L230 47L229 46z"/>
<path style="fill:#361905; stroke:none;" d="M237.333 46.6667C237.278 46.7222 237.222 47.7778 237.667 47.3333C237.722 47.2778 237.778 46.2222 237.333 46.6667z"/>
<path style="fill:#715b4a; stroke:none;" d="M238 46L239 47L238 46z"/>
<path style="fill:#f4c1be; stroke:none;" d="M254.333 46.6667C254.278 46.7222 254.222 47.7778 254.667 47.3333C254.722 47.2778 254.778 46.2222 254.333 46.6667z"/>
<path style="fill:#bdb0a5; stroke:none;" d="M230.333 47.6667C230.278 47.7222 230.222 48.7778 230.667 48.3333C230.722 48.2777 230.778 47.2223 230.333 47.6667z"/>
<path style="fill:#b2a498; stroke:none;" d="M233.333 47.6667C233.278 47.7222 233.222 48.7778 233.667 48.3333C233.722 48.2777 233.778 47.2223 233.333 47.6667z"/>
<path style="fill:#ffffff; stroke:none;" d="M235.333 47.6667C235.278 47.7222 235.222 48.7778 235.667 48.3333C235.722 48.2778 235.778 47.2223 235.333 47.6667z"/>
<path style="fill:#c3b8ab; stroke:none;" d="M236 47L237 48L236 47z"/>
<path style="fill:#e2dad0; stroke:none;" d="M238.333 47.6667C238.278 47.7222 238.222 48.7778 238.667 48.3333C238.722 48.2777 238.778 47.2223 238.333 47.6667z"/>
<path style="fill:#9e8f7f; stroke:none;" d="M239 47L240 48L239 47z"/>
<path style="fill:#cec4b8; stroke:none;" d="M241 47L242 48L241 47z"/>
<path style="fill:#b3a798; stroke:none;" d="M228 48L229 49L228 48z"/>
<path style="fill:#59412d; stroke:none;" d="M236.667 48.3333C236.222 48.7777 237.278 48.7223 237.333 48.6667C237.778 48.2222 236.722 48.2778 236.667 48.3333z"/>
<path style="fill:#968676; stroke:none;" d="M240 48L241 49L240 48z"/>
<path style="fill:#776252; stroke:none;" d="M230 49L231 50L230 49z"/>
<path style="fill:#715b4c; stroke:none;" d="M232.667 49.3333C232.222 49.7778 233.278 49.7222 233.333 49.6667C233.778 49.2222 232.722 49.2778 232.667 49.3333z"/>
<path style="fill:#d9cfc5; stroke:none;" d="M235 49L236 50L235 49z"/>
<path style="fill:#ad9f91; stroke:none;" d="M237 49L238 50L237 49z"/>
<path style="fill:#a39386; stroke:none;" d="M228 51L229 52L228 51z"/>
<path style="fill:#c7b5a5; stroke:none;" d="M230 51L231 52L230 51z"/>
<path style="fill:#f9e2c7; stroke:none;" d="M227 81L235 82C235.028 71.9556 237 62.0678 237 52C235.074 51.7014 232.527 50.9245 231.012 52.6427C229.122 54.7847 229.208 59.3191 229.025 62C228.591 68.3488 227.798 74.6891 227 81z"/>
<path style="fill:#ddcebc; stroke:none;" d="M234.667 51.3333C234.222 51.7778 235.278 51.7222 235.333 51.6667C235.778 51.2222 234.722 51.2778 234.667 51.3333z"/>
<path style="fill:#9b8b78; stroke:none;" d="M236 51L237 52L236 51z"/>
<path style="fill:#70594a; stroke:none;" d="M228 52C228.545 53.6351 228.365 53.455 230 54L230 52L228 52z"/>
<path style="fill:#dac5b1; stroke:none;" d="M237 52L237 56C237.71 54.2405 237.71 53.7595 237 52z"/>
<path style="fill:#ded5cb; stroke:none;" d="M239 52L239 56C239.71 54.2405 239.71 53.7595 239 52z"/>
<path style="fill:#321501; stroke:none;" d="M228 53L228 61C229.161 58.2302 229.161 55.7698 228 53z"/>
<path style="fill:#a3907e; stroke:none;" d="M229.333 54.6667C229.278 54.7222 229.222 55.7778 229.667 55.3333C229.722 55.2778 229.778 54.2222 229.333 54.6667z"/>
<path style="fill:#e0d7cd; stroke:none;" d="M227.333 56.6667C227.278 56.7222 227.222 57.7778 227.667 57.3333C227.722 57.2778 227.778 56.2222 227.333 56.6667z"/>
<path style="fill:#d9c4b0; stroke:none;" d="M229.333 56.6667C229.278 56.7222 229.222 57.7778 229.667 57.3333C229.722 57.2778 229.778 56.2222 229.333 56.6667z"/>
<path style="fill:#988576; stroke:none;" d="M237.333 56.6667C237.278 56.7222 237.222 57.7778 237.667 57.3333C237.722 57.2778 237.778 56.2222 237.333 56.6667z"/>
<path style="fill:#ee9f9e; stroke:none;" d="M197 57C195.619 59.5691 194.235 61.1139 192 63L192 65C194.034 66.867 195.476 68.6943 197 71C199.541 68.2789 201.423 66.2427 205 65L197 57M264 57C262.298 59.942 260.717 61.959 258 64L265 71C266.524 68.6943 267.966 66.867 270 65L270 63L264 57z"/>
<path style="fill:#a8998d; stroke:none;" d="M227.333 58.6667C227.278 58.7222 227.222 59.7778 227.667 59.3333C227.722 59.2778 227.778 58.2222 227.333 58.6667z"/>
<path style="fill:#6d5646; stroke:none;" d="M237 58C237.684 59.58 237.805 59.7772 239 61L239 58L237 58z"/>
<path style="fill:#6c5747; stroke:none;" d="M227 60C227.406 62.0924 227.217 62.0198 229 63C228.316 61.42 228.195 61.2227 227 60z"/>
<path style="fill:#321602; stroke:none;" d="M237 60L237 68C238.161 65.2302 238.161 62.7698 237 60z"/>
<path style="fill:#a59689; stroke:none;" d="M238.333 61.6667C238.278 61.7223 238.222 62.7777 238.667 62.3333C238.722 62.2778 238.778 61.2222 238.333 61.6667z"/>
<path style="fill:#f3bab6; stroke:none;" d="M191.333 63.6667C191.278 63.7223 191.222 64.7778 191.667 64.3333C191.722 64.2778 191.778 63.2222 191.333 63.6667z"/>
<path style="fill:#321603; stroke:none;" d="M227 63L227 71C228.161 68.2302 228.161 65.7698 227 63z"/>
<path style="fill:#a69484; stroke:none;" d="M228 63L228 66C228.696 64.4463 228.696 64.5537 228 63z"/>
<path style="fill:#dcc9b5; stroke:none;" d="M236.333 63.6667C236.278 63.7222 236.222 64.7778 236.667 64.3333C236.722 64.2778 236.778 63.2222 236.333 63.6667z"/>
<path style="fill:#ded5cb; stroke:none;" d="M238 63L238 66C238.696 64.4463 238.696 64.5537 238 63z"/>
<path style="fill:#f3bab6; stroke:none;" d="M270.333 63.6667C270.278 63.7222 270.222 64.7778 270.667 64.3333C270.722 64.2777 270.778 63.2223 270.333 63.6667z"/>
<path style="fill:#ded5cb; stroke:none;" d="M226 65L226 68C226.696 66.4463 226.696 66.5537 226 65z"/>
<path style="fill:#a59383; stroke:none;" d="M236 65L236 68C236.696 66.4463 236.696 66.5537 236 65z"/>
<path style="fill:#dac4b0; stroke:none;" d="M228.333 66.6667C228.278 66.7223 228.222 67.7777 228.667 67.3333C228.722 67.2778 228.778 66.2222 228.333 66.6667z"/>
<path style="fill:#a8998c; stroke:none;" d="M226.333 68.6667C226.278 68.7223 226.222 69.7778 226.667 69.3333C226.722 69.2778 226.778 68.2222 226.333 68.6667z"/>
<path style="fill:#6d5646; stroke:none;" d="M236 68C236.684 69.58 236.805 69.7772 238 71L238 68L236 68z"/>
<path style="fill:#6c5646; stroke:none;" d="M226 70C226.406 72.0924 226.217 72.0198 228 73C227.316 71.42 227.195 71.2228 226 70z"/>
<path style="fill:#321501; stroke:none;" d="M236 70L236 78C237.161 75.2302 237.161 72.7699 236 70z"/>
<path style="fill:#a59689; stroke:none;" d="M237.333 71.6667C237.278 71.7223 237.222 72.7778 237.667 72.3333C237.722 72.2778 237.778 71.2222 237.333 71.6667z"/>
<path style="fill:#3b1f0c; stroke:none;" d="M226 73L226 83L235 83L235 87C235.985 84.6684 235.981 82.5433 236 80C232.989 81.6751 230.42 81.9621 227 82C226.998 78.8741 227.213 75.8897 226 73z"/>
<path style="fill:#a69383; stroke:none;" d="M227 73L227 76C227.696 74.4463 227.696 74.5537 227 73z"/>
<path style="fill:#ddcab7; stroke:none;" d="M235.333 73.6667C235.278 73.7223 235.222 74.7777 235.667 74.3333C235.722 74.2778 235.778 73.2222 235.333 73.6667z"/>
<path style="fill:#ddd4ca; stroke:none;" d="M237.333 73.6667C237.278 73.7223 237.222 74.7778 237.667 74.3333C237.722 74.2778 237.778 73.2222 237.333 73.6667z"/>
<path style="fill:#ded5cb; stroke:none;" d="M225 75L225 78C225.696 76.4463 225.696 76.5537 225 75z"/>
<path style="fill:#a79485; stroke:none;" d="M235 75L235 78C235.696 76.4463 235.696 76.5537 235 75z"/>
<path style="fill:#d8c3ae; stroke:none;" d="M227.333 76.6667C227.278 76.7223 227.222 77.7777 227.667 77.3333C227.722 77.2778 227.778 76.2221 227.333 76.6667z"/>
<path style="fill:#a8998c; stroke:none;" d="M225.333 78.6667C225.278 78.7223 225.222 79.7778 225.667 79.3333C225.722 79.2778 225.778 78.2222 225.333 78.6667z"/>
<path style="fill:#6d5645; stroke:none;" d="M235 78C235.684 79.58 235.805 79.7772 237 81L237 78L235 78z"/>
<path style="fill:#705a49; stroke:none;" d="M225 80L225 83C225.696 81.4463 225.696 81.5537 225 80z"/>
<path style="fill:#a69584; stroke:none;" d="M227 81C228.248 81.6848 228.548 81.7488 230 82C228.752 81.3152 228.452 81.2512 227 81z"/>
<path style="fill:#d9c4ad; stroke:none;" d="M230.667 81.3333C230.222 81.7777 231.278 81.7223 231.333 81.6667C231.778 81.2222 230.722 81.2778 230.667 81.3333z"/>
<path style="fill:#a59689; stroke:none;" d="M236.333 81.6667C236.278 81.7223 236.222 82.7778 236.667 82.3333C236.722 82.2778 236.778 81.2222 236.333 81.6667z"/>
<path style="fill:#321702; stroke:none;" d="M225 83L225 87C225.71 85.2405 225.71 84.7595 225 83z"/>
<path style="fill:#a3877a; stroke:none;" d="M226 83L226 87C226.71 85.2405 226.71 84.7595 226 83z"/>
<path style="fill:#f6a2a2; stroke:none;" d="M227 83C227.728 87.3619 229.824 87.8629 234 88L235 84C232.314 83.4992 229.73 83.1174 227 83z"/>
<path style="fill:#a7887d; stroke:none;" d="M232 83C233.248 83.6848 233.548 83.7488 235 84C233.752 83.3152 233.452 83.2512 232 83z"/>
<path style="fill:#ddd4ca; stroke:none;" d="M236.333 83.6667C236.278 83.7222 236.222 84.7778 236.667 84.3333C236.722 84.2778 236.778 83.2222 236.333 83.6667z"/>
<path style="fill:#987e70; stroke:none;" d="M234.333 85.6667C234.278 85.7223 234.222 86.7778 234.667 86.3333C234.722 86.2778 234.778 85.2222 234.333 85.6667z"/>
<path style="fill:#a6988a; stroke:none;" d="M225 87L226 88L225 87z"/>
<path style="fill:#371e09; stroke:none;" d="M226 87L227 88L226 87z"/>
<path style="fill:#9a7f72; stroke:none;" d="M227 87L228 88L227 87z"/>
<path style="fill:#331d07; stroke:none;" d="M234 87C231.582 87.7224 229.528 87.9481 227 88C228.679 88.9675 235.312 90.1786 234 87z"/>
<path style="fill:#786453; stroke:none;" d="M235 87L236 88L235 87z"/>
<path style="fill:#887564; stroke:none;" d="M226 88L227 89L226 88z"/>
<path style="fill:#d1c7bc; stroke:none;" d="M228.667 89.3333C228.222 89.7777 229.278 89.7223 229.333 89.6667C229.778 89.2222 228.722 89.2778 228.667 89.3333z"/>
<path style="fill:#a8998c; stroke:none;" d="M230 89C231.506 89.683 232.315 89.8259 234 90C232.494 89.317 231.685 89.1741 230 89z"/>
<path style="fill:#ee9f9e; stroke:none;" d="M189.044 98.7577C180.488 101.958 185.711 114.418 193.981 111.392C202.766 108.177 197.387 95.6368 189.044 98.7577M129 105C132.286 113.065 132 120.394 132 129C132 140.216 131.88 151.115 129 162L147 162C144.998 150.175 140.327 135.396 149.39 125.109C153.352 120.613 163.723 120.869 161.199 128.98C158.732 136.907 150.386 127.729 149 136L154 136C151.759 142.148 150.276 151.046 154.009 156.957C159.081 164.986 171.103 164.718 176.272 156.981C179.895 151.56 179 144.183 179 138C176.525 141.257 175.384 145.612 171.815 147.987C163.288 153.662 157.882 142.486 156 136C158.032 136.978 159.722 137.698 162.005 137.896C171.041 138.677 177.883 129.237 172.258 121.108C169.368 116.932 163.778 115.747 159 116.098C156.543 116.278 154.154 116.925 152.043 118.228C148.19 120.607 146.892 124.801 144 128L144 101L129 105z"/>
<path style="fill:#f5c4c1; stroke:none;" d="M144 101L144 120C144.006 123.106 143.593 125.897 146 128C143.961 119.435 147.359 109.004 144 101z"/>
<path style="fill:#ee9f9e; stroke:none;" d="M342 105C346.646 122.515 347.342 144.728 341 162L360 162C356.939 152.276 354.674 139.777 358.88 130C360.656 125.873 364.498 119.867 369.895 121.786C374.568 123.448 375.202 129.708 370.927 132.253C368.134 133.916 366.005 130.863 363.298 131.742C359.029 133.129 364.427 135.738 366 136C364.417 142.925 362.724 150.222 366.453 156.907C371.09 165.218 383.957 164.755 388.772 156.957C392.271 151.29 391 143.367 391 137C389.145 140.76 388.381 144.773 384.895 147.566C377.133 153.785 370.619 143.734 369 137C371.968 137.707 374.928 138.221 377.999 137.89C385.827 137.049 389.214 127.427 384.991 121.109C381.322 115.62 371.588 114.625 366.004 117.457C361.776 119.601 360.03 123.692 357 127L357 101L342 105z"/>
<path style="fill:#f7d3ce; stroke:none;" d="M256 103C258.89 104.213 261.874 103.998 265 104C262.11 102.787 259.126 103.002 256 103z"/>
<path style="fill:#f6cac6; stroke:none;" d="M348.667 103.333C348.222 103.778 349.278 103.722 349.333 103.667C349.778 103.222 348.722 103.278 348.667 103.333z"/>
<path style="fill:#f8d8d2; stroke:none;" d="M20 104C23.6987 105.552 28.0172 105 32 105L52 105C48.3013 103.448 43.9828 104 40 104L20 104z"/>
<path style="fill:#f6c9c4; stroke:none;" d="M129 104C130.248 104.685 130.548 104.749 132 105C130.752 104.315 130.452 104.251 129 104z"/>
<path style="fill:#ee9f9e; stroke:none;" d="M267 143C268.054 144.469 269.7 146.175 269.843 148.078C270.348 154.807 261.183 152.605 260.662 146.996C260.275 142.833 264.938 138.429 269 138.623C273.551 138.84 277.965 143.596 278.421 148C279.316 156.663 269.456 162.085 262 160.66C254.795 159.282 248.849 152.76 246.599 146C243.141 135.609 244.476 121.72 251.39 113.004C253.944 109.785 257.716 106.056 262 105.499C269.824 104.483 275.387 113.618 277 120C278.351 116.99 280.246 110.679 277.971 107.728C275.647 104.712 268.49 104.334 265 104.09C253.638 103.293 242.004 105.198 234.789 115.015C226.3 126.563 227.181 144.868 238.093 154.671C249.254 164.698 273.644 167.668 283.347 153.985C288.84 146.239 288.013 134.314 279.96 128.703C271.175 122.582 257.35 126.294 254.558 137C252.356 145.444 260.69 159.965 270.772 153.821C277.197 149.905 272.738 143.438 267 143z"/>
<path style="fill:#f5c6c2; stroke:none;" d="M268 104C269.248 104.685 269.548 104.749 271 105C269.752 104.315 269.452 104.251 268 104z"/>
<path style="fill:#f7ccc6; stroke:none;" d="M341 106L344 105C342.222 104.045 341.979 104.234 341 106z"/>
<path style="fill:#ee9f9e; stroke:none;" d="M20 105C26.8142 123.282 24.27 143.543 20 162L42 162C39.8354 152.643 39 144.651 39 135C41.711 138.291 43.8333 140.821 48 142C46.0325 139.796 42.8206 137.211 42.7515 134.005C42.6241 128.088 48.2459 129.232 51 132C54.0926 123.975 43.0595 119.679 40 128C37.9689 121.129 39 113.137 39 106C44.5864 106.05 49.6619 107.088 53.787 111.213C63.2097 120.636 61.2298 136.605 49 142C65.9496 149.112 81.7704 125.953 70.4421 112.105C65.1924 105.687 56.658 105.003 49 105L20 105z"/>
<path style="fill:#f8d8d1; stroke:none;" d="M260 105C262.052 105.874 263.747 105.953 266 106C263.948 105.126 262.253 105.047 260 105z"/>
<path style="fill:#faddd7; stroke:none;" d="M273.667 105.333C273.222 105.778 274.278 105.722 274.333 105.667C274.778 105.222 273.722 105.278 273.667 105.333z"/>
<path style="fill:#f7d3cd; stroke:none;" d="M39 106C40.7691 106.779 42.0359 106.912 44 107C42.231 106.221 40.9641 106.088 39 106z"/>
<path style="fill:#f2b5b3; stroke:none;" d="M44 106C45.2484 106.685 45.5484 106.749 47 107C45.7516 106.315 45.4516 106.251 44 106z"/>
<path style="fill:#fffbf2; stroke:none;" d="M39 107L39 128C40.4679 126.43 41.9809 124.115 44.1049 123.403C49.797 121.495 51.7811 129.002 52 133L50 133C49.401 129.553 45.6628 126.4 43.6042 131.152C40.2408 138.916 50.0985 143.76 55.6057 138.566C62.4277 132.133 59.9019 114.987 52.8951 109.653C48.844 106.569 43.8006 107.001 39 107z"/>
<path style="fill:#f6c7c2; stroke:none;" d="M279.333 107.667C279.278 107.722 279.222 108.778 279.667 108.333C279.722 108.278 279.778 107.222 279.333 107.667z"/>
<path style="fill:#fbe7e0; stroke:none;" d="M131 110L131 148C132.441 144.565 132 140.702 132 137C132 128.993 134.105 117.4 131 110z"/>
<path style="fill:#f6c9c4; stroke:none;" d="M22 112L22 115C22.6961 113.446 22.6961 113.554 22 112z"/>
<path style="fill:#f6c7c2; stroke:none;" d="M278 114L278 117C278.696 115.446 278.696 115.554 278 114z"/>
<path style="fill:#f1aeab; stroke:none;" d="M344 114L344 145C345.328 141.834 345 138.419 345 135C345 128.58 346.497 119.951 344 114z"/>
<path style="fill:#ee9f9e; stroke:none;" d="M97 125C95.1679 125.821 93.1541 127.05 91.0586 126.406C87.6222 125.349 87.5559 121.614 90.1674 119.607C93.272 117.222 97.2464 118.692 99.7222 121.228C103.953 125.562 104.752 133.24 105 139C101.751 137.146 98.8063 135.423 95 135.094C92.1517 134.848 88.7102 134.702 86.0008 135.742C77.2255 139.112 75.203 152.107 81.3943 158.775C85.9052 163.634 94.2184 163.985 99.9961 161.347C103.901 159.564 106.012 155.859 109 153C110.579 164.808 124.782 166.212 127 154C122.17 154.414 120.11 151.634 119.174 147C117.063 136.548 117.728 122.409 105.999 117.613C100.523 115.375 92.2537 114.93 87.044 118.09C83.1709 120.438 80.4859 125.699 83.6042 129.772C88.5922 136.287 96.245 131.634 97 125M183 120C188.134 133.332 186.591 148.431 183 162L201 162C198.91 146.476 198 131.72 198 116C192.967 117.373 188.146 119.001 183 120z"/>
<path style="fill:#f2b3b0; stroke:none;" d="M198 116L198 145C199.328 141.834 199 138.419 199 135C199 129.113 200.292 121.462 198 116z"/>
<path style="fill:#ec9594; stroke:none;" d="M296 122C298.044 121.158 298.282 120.797 300 122C303.535 118.296 307.221 118.152 312 117C306.362 114.635 299.042 116.641 296 122z"/>
<path style="fill:#ee9f9e; stroke:none;" d="M310 117L310 119C316.124 124.111 317.025 132.448 318 140C314.922 137.48 312.071 135.509 308 135.105C305.437 134.85 302.52 134.814 300 135.394C290.447 137.593 287.334 149.313 292.703 156.957C297.519 163.814 308.179 164.895 314.895 160.121C317.468 158.292 318.76 155.796 320 153C321.842 156.31 323.465 160.144 327.019 161.971C334.412 165.773 339.343 158.368 340 152C333.523 156.054 331.994 148.123 331.084 143C328.952 130.995 326.207 114.467 310 117z"/>
<path style="fill:#fadbd4; stroke:none;" d="M314.667 116.333C314.222 116.778 315.278 116.722 315.333 116.667C315.778 116.222 314.722 116.278 314.667 116.333z"/>
<path style="fill:#f8d4cf; stroke:none;" d="M377.667 116.333C377.222 116.778 378.278 116.722 378.333 116.667C378.778 116.222 377.722 116.278 377.667 116.333z"/>
<path style="fill:#ee9f9e; stroke:none;" d="M424 153C425.339 151.441 426.811 149.164 429.051 148.917C434.138 148.354 435.249 154.667 432.562 157.772C428.28 162.719 420.624 161.083 416.093 157.442C409.723 152.323 408.021 144.72 408 137C416.114 138.506 426.165 139.016 433.995 135.853C439.072 133.802 441.675 128.141 438.972 123.043C435.752 116.97 427.105 116.154 421 116.015C404.967 115.648 392.417 127.429 395.329 144C397.729 157.661 412.484 163.823 425 162.91C431.571 162.43 439.168 159.905 441.347 152.996C444.932 141.631 428.072 134.113 423.746 145.044C422.704 147.678 423.382 150.374 424 153z"/>
<path style="fill:#f5c4c1; stroke:none;" d="M426 116C427.248 116.685 427.548 116.749 429 117C427.752 116.315 427.452 116.251 426 116z"/>
<path style="fill:#f2b6b2; stroke:none;" d="M420 117C421.248 117.685 421.548 117.749 423 118C421.752 117.315 421.452 117.251 420 117z"/>
<path style="fill:#f7d1cb; stroke:none;" d="M189.667 118.333C189.222 118.778 190.278 118.722 190.333 118.667C190.778 118.222 189.722 118.278 189.667 118.333z"/>
<path style="fill:#fffbf2; stroke:none;" d="M408 135C411.646 135 415.364 135.206 419 134.907C421.053 134.737 423.12 134.351 424.981 133.427C438.094 126.92 424.361 111.974 414.185 120.434C412.4 121.918 411.035 123.942 410 126.001C408.544 128.896 408.146 131.815 408 135z"/>
<path style="fill:#f5c0bc; stroke:none;" d="M183 119C184.248 119.685 184.548 119.749 186 120C184.752 119.315 184.452 119.251 183 119z"/>
<path style="fill:#ee9f9e; stroke:none;" d="M298 120C295.737 122.563 294.208 125.308 295.743 128.812C297.814 133.538 305.2 134.205 307.972 129.776C309.054 128.049 308.937 125.944 309 124C302.998 128.769 301.698 124.84 298 120z"/>
<path style="fill:#f2b7b3; stroke:none;" d="M23 121L23 145C25.3486 139.403 25.3486 126.597 23 121z"/>
<path style="fill:#faddd7; stroke:none;" d="M74 121L74 125C74.7102 123.241 74.7102 122.759 74 121z"/>
<path style="fill:#f7d3ce; stroke:none;" d="M87 121L87 125C87.7102 123.241 87.7102 122.759 87 121z"/>
<path style="fill:#f4c2be; stroke:none;" d="M44 122C45.2484 122.685 45.5484 122.749 47 123C45.7517 122.315 45.4516 122.251 44 122z"/>
<path style="fill:#fbe7e0; stroke:none;" d="M59 122L59 130C60.1614 127.23 60.1614 124.77 59 122z"/>
<path style="fill:#f5bfbb; stroke:none;" d="M294 123L294 128C294.83 125.97 294.83 125.03 294 123z"/>
<path style="fill:#f4bdb9; stroke:none;" d="M95 124L95 126C96.6351 125.455 96.4549 125.635 97 124L95 124z"/>
<path style="fill:#f6cac5; stroke:none;" d="M267 125C268.769 125.779 270.036 125.912 272 126C270.231 125.221 268.964 125.088 267 125z"/>
<path style="fill:#f3bdb9; stroke:none;" d="M309 125L309 128C309.696 126.446 309.696 126.554 309 125z"/>
<path style="fill:#f2b6b3; stroke:none;" d="M358.333 125.667C358.278 125.722 358.222 126.778 358.667 126.333C358.722 126.278 358.778 125.222 358.333 125.667z"/>
<path style="fill:#f3bcb9; stroke:none;" d="M440 125L440 130C440.83 127.97 440.83 127.03 440 125z"/>
<path style="fill:#fbe7e0; stroke:none;" d="M185 126L185 148C187.219 142.713 187.219 131.287 185 126z"/>
<path style="fill:#f6c6c3; stroke:none;" d="M229.333 126.667C229.278 126.722 229.222 127.778 229.667 127.333C229.722 127.278 229.778 126.222 229.333 126.667z"/>
<path style="fill:#f8d6cf; stroke:none;" d="M245.333 126.667C245.278 126.722 245.222 127.778 245.667 127.333C245.722 127.278 245.778 126.222 245.333 126.667z"/>
<path style="fill:#f5c6c2; stroke:none;" d="M374 126L374 129C374.696 127.446 374.696 127.554 374 126z"/>
<path style="fill:#f4bbb7; stroke:none;" d="M91.6667 127.333C91.2222 127.778 92.2778 127.722 92.3333 127.667C92.7778 127.222 91.7222 127.278 91.6667 127.333z"/>
<path style="fill:#f5c3bf; stroke:none;" d="M303 127C304.248 127.685 304.548 127.749 306 128C304.752 127.315 304.452 127.251 303 127z"/>
<path style="fill:#f6c9c4; stroke:none;" d="M430.333 127.667C430.278 127.722 430.222 128.778 430.667 128.333C430.722 128.278 430.778 127.222 430.333 127.667z"/>
<path style="fill:#f8d6cf; stroke:none;" d="M103.333 128.667C103.278 128.722 103.222 129.778 103.667 129.333C103.722 129.278 103.778 128.222 103.333 128.667z"/>
<path style="fill:#f8d6d1; stroke:none;" d="M42 131L42 136C42.8299 133.97 42.8299 133.03 42 131z"/>
<path style="fill:#f7d3cd; stroke:none;" d="M50 131L50 133L52 133C51.4549 131.365 51.6352 131.545 50 131z"/>
<path style="fill:#f8d7d1; stroke:none;" d="M316.333 131.667C316.278 131.722 316.222 132.778 316.667 132.333C316.722 132.278 316.778 131.222 316.333 131.667z"/>
<path style="fill:#f5c5c0; stroke:none;" d="M104.333 133.667C104.278 133.722 104.222 134.778 104.667 134.333C104.722 134.278 104.778 133.222 104.333 133.667z"/>
<path style="fill:#f5c1bd; stroke:none;" d="M329.333 133.667C329.278 133.722 329.222 134.778 329.667 134.333C329.722 134.278 329.778 133.222 329.333 133.667z"/>
<path style="fill:#f5c3be; stroke:none;" d="M89 134C91.0521 134.874 92.7472 134.953 95 135C92.9479 134.126 91.2528 134.047 89 134z"/>
<path style="fill:#f3bdba; stroke:none;" d="M302 134C303.769 134.779 305.036 134.912 307 135C305.231 134.221 303.964 134.088 302 134z"/>
<path style="fill:#f7d2cc; stroke:none;" d="M117.333 135.667C117.278 135.722 117.222 136.778 117.667 136.333C117.722 136.278 117.778 135.222 117.333 135.667z"/>
<path style="fill:#f5c4bf; stroke:none;" d="M144 135L144 148C145.591 144.209 145.591 138.791 144 135z"/>
<path style="fill:#fceee6; stroke:none;" d="M408 135C410.89 136.213 413.874 135.998 417 136C414.11 134.787 411.126 135.002 408 135z"/>
<path style="fill:#f3bdb9; stroke:none;" d="M417.667 135.333C417.222 135.778 418.278 135.722 418.333 135.667C418.778 135.222 417.722 135.278 417.667 135.333z"/>
<path style="fill:#fae2dc; stroke:none;" d="M150 136C151.377 136.911 152.44 137.404 154 138C152.686 136.382 152.123 136.307 150 136z"/>
<path style="fill:#f7d1cb; stroke:none;" d="M317 136L317 140C317.71 138.24 317.71 137.759 317 136z"/>
<path style="fill:#f7cec9; stroke:none;" d="M363.667 136.333C363.222 136.778 364.278 136.722 364.333 136.667C364.778 136.222 363.722 136.278 363.667 136.333z"/>
<path style="fill:#f3bcb8; stroke:none;" d="M177 137L177 140C178.015 138.861 178.309 138.388 179 137L177 137z"/>
<path style="fill:#f5c2be; stroke:none;" d="M229 137L229 140C229.696 138.446 229.696 138.554 229 137z"/>
<path style="fill:#f7d2cd; stroke:none;" d="M408 137C409.248 137.685 409.548 137.749 411 138C409.752 137.315 409.452 137.251 408 137z"/>
<path style="fill:#f8d6cf; stroke:none;" d="M426 137C427.248 137.685 427.548 137.749 429 138C427.752 137.315 427.452 137.251 426 137z"/>
<path style="fill:#f6cbc7; stroke:none;" d="M96 138C97.769 138.779 99.0359 138.912 101 139C99.231 138.221 97.9641 138.088 96 138z"/>
<path style="fill:#f6c9c4; stroke:none;" d="M161 138C162.769 138.779 164.036 138.912 166 139C164.231 138.221 162.964 138.088 161 138z"/>
<path style="fill:#fceae2; stroke:none;" d="M266 138C267.769 138.779 269.036 138.912 271 139C269.231 138.221 267.964 138.088 266 138z"/>
<path style="fill:#f7d1cc; stroke:none;" d="M309 138C310.506 138.683 311.315 138.826 313 139C311.494 138.317 310.685 138.174 309 138z"/>
<path style="fill:#f7d0cb; stroke:none;" d="M330.333 138.667C330.278 138.722 330.222 139.778 330.667 139.333C330.722 139.278 330.778 138.222 330.333 138.667z"/>
<path style="fill:#f6ccc7; stroke:none;" d="M374 138C375.769 138.779 377.036 138.912 379 139C377.231 138.221 375.964 138.088 374 138z"/>
<path style="fill:#f8d4d0; stroke:none;" d="M391.333 138.667C391.278 138.722 391.222 139.778 391.667 139.333C391.722 139.278 391.778 138.222 391.333 138.667z"/>
<path style="fill:#fffbf2; stroke:none;" d="M94.1088 140.028C84.9705 145.155 92.8475 161.95 102.775 155.972C111.826 150.523 104.144 134.398 94.1088 140.028M307.189 139.742C298.408 143.615 303.532 160.439 313.956 156.396C323.879 152.547 317.921 135.01 307.189 139.742z"/>
<path style="fill:#f7cec9; stroke:none;" d="M430 139C431.769 139.779 433.036 139.912 435 140C433.231 139.221 431.964 139.088 430 139z"/>
<path style="fill:#f5c1bd; stroke:none;" d="M389.333 140.667C389.278 140.722 389.222 141.778 389.667 141.333C389.722 141.278 389.778 140.222 389.333 140.667z"/>
<path style="fill:#f1b0ae; stroke:none;" d="M391 140L391 148C392.161 145.23 392.161 142.77 391 140z"/>
<path style="fill:#f2b2b0; stroke:none;" d="M47 142C48.6593 142.406 49.2418 142.309 51 142C49.1908 141.426 48.9312 141.535 47 142z"/>
<path style="fill:#f6cdc8; stroke:none;" d="M118.333 141.667C118.278 141.722 118.222 142.778 118.667 142.333C118.722 142.278 118.778 141.222 118.333 141.667z"/>
<path style="fill:#f8dbd4; stroke:none;" d="M266 143L266 145L268 145C267.455 143.365 267.635 143.545 266 143z"/>
<path style="fill:#f8d8d2; stroke:none;" d="M151 144L151 150C151.951 147.715 151.951 146.285 151 144z"/>
<path style="fill:#f8d7d1; stroke:none;" d="M260 144L260 149C260.83 146.97 260.83 146.03 260 144z"/>
<path style="fill:#f6cbc5; stroke:none;" d="M331.333 144.667C331.278 144.722 331.222 145.778 331.667 145.333C331.722 145.278 331.778 144.222 331.333 144.667z"/>
<path style="fill:#f5c5c0; stroke:none;" d="M408.333 144.667C408.278 144.722 408.222 145.778 408.667 145.333C408.722 145.278 408.778 144.222 408.333 144.667z"/>
<path style="fill:#f3bdba; stroke:none;" d="M286 145L286 148C286.696 146.446 286.696 146.554 286 145z"/>
<path style="fill:#f7cec8; stroke:none;" d="M77 146L77 152C77.9511 149.715 77.9511 148.285 77 146z"/>
<path style="fill:#f5c6c2; stroke:none;" d="M278 146L278 151C278.83 148.97 278.83 148.03 278 146z"/>
<path style="fill:#f3bcb8; stroke:none;" d="M302 146L302 150C302.71 148.24 302.71 147.76 302 146z"/>
<path style="fill:#f1b1ae; stroke:none;" d="M319 146L319 150C319.71 148.24 319.71 147.76 319 146z"/>
<path style="fill:#f6c8c4; stroke:none;" d="M119 147L119 150C119.696 148.446 119.696 148.554 119 147z"/>
<path style="fill:#f8d9d2; stroke:none;" d="M274 147L274 150C274.696 148.446 274.696 148.554 274 147z"/>
<path style="fill:#f1b2af; stroke:none;" d="M185 148L185 152C185.71 150.241 185.71 149.759 185 148z"/>
<path style="fill:#f3bfbc; stroke:none;" d="M357 148L357 154C357.951 151.715 357.951 150.285 357 148z"/>
<path style="fill:#fadcd6; stroke:none;" d="M391 148L391 151C391.696 149.446 391.696 149.554 391 148z"/>
<path style="fill:#f8d7d1; stroke:none;" d="M165 149C166.769 149.779 168.036 149.912 170 150C168.231 149.221 166.964 149.088 165 149z"/>
<path style="fill:#faddd6; stroke:none;" d="M377 149C379.052 149.874 380.747 149.953 383 150C380.948 149.126 379.253 149.047 377 149z"/>
<path style="fill:#f5c0bc; stroke:none;" d="M90.3333 150.667C90.2778 150.722 90.2222 151.778 90.6667 151.333C90.7222 151.278 90.7778 150.222 90.3333 150.667z"/>
<path style="fill:#f3beba; stroke:none;" d="M364 150L364 153C364.696 151.446 364.696 151.554 364 150z"/>
<path style="fill:#f7d3cd; stroke:none;" d="M22 151L22 154C22.6961 152.446 22.6961 152.554 22 151z"/>
<path style="fill:#f3beba; stroke:none;" d="M39 151L39 154C39.6961 152.446 39.6961 152.554 39 151z"/>
<path style="fill:#f8d1cb; stroke:none;" d="M127 152L126 154L128 154C128 152.147 128.3 152.65 127 152z"/>
<path style="fill:#fadbd5; stroke:none;" d="M199 152L199 155C199.696 153.446 199.696 153.554 199 152z"/>
<path style="fill:#f3bdb9; stroke:none;" d="M265.667 153.333C265.222 153.778 266.278 153.722 266.333 153.667C266.778 153.222 265.722 153.278 265.667 153.333z"/>
<path style="fill:#f6ccc7; stroke:none;" d="M145 154L145 157C145.696 155.446 145.696 155.554 145 154z"/>
<path style="fill:#f8d7d2; stroke:none;" d="M184 155L184 158C184.696 156.446 184.696 156.554 184 155z"/>
<path style="fill:#f5c1bd; stroke:none;" d="M130.333 156.667C130.278 156.722 130.222 157.778 130.667 157.333C130.722 157.278 130.778 156.222 130.333 156.667z"/>
<path style="fill:#f7d1cc; stroke:none;" d="M96 157C97.769 157.779 99.0359 157.912 101 158C99.231 157.221 97.9641 157.088 96 157z"/>
<path style="fill:#f8d6d1; stroke:none;" d="M309 157C310.506 157.683 311.315 157.826 313 158C311.494 157.317 310.685 157.174 309 157z"/>
<path style="fill:#f3bcb8; stroke:none;" d="M358.333 157.667C358.278 157.722 358.222 158.778 358.667 158.333C358.722 158.278 358.778 157.222 358.333 157.667z"/>
<path style="fill:#f2b3b0; stroke:none;" d="M269.667 160.333C269.222 160.778 270.278 160.722 270.333 160.667C270.778 160.222 269.722 160.278 269.667 160.333z"/>
<path style="fill:#f7d0cb; stroke:none;" d="M96.6667 162.333C96.2222 162.778 97.2778 162.722 97.3333 162.667C97.7778 162.222 96.7222 162.278 96.6667 162.333z"/>
<path style="fill:#f5c4c0; stroke:none;" d="M254 162C255.248 162.685 255.548 162.749 257 163C255.752 162.315 255.452 162.251 254 162z"/>
<path style="fill:#fae0da; stroke:none;" d="M309.667 162.333C309.222 162.778 310.278 162.722 310.333 162.667C310.778 162.222 309.722 162.278 309.667 162.333z"/>
</svg>
